<svg viewBox="0 0 400 400" xmlns="http://www.w3.org/2000/svg" role="img" aria-label="the fifteen-edge network with a band on every edge, its width the total flow, split between the two populations, each band outlined dotted because it is one member of the face">
<polygon class="w-chosen" points="47.0,244.0 104.8,244.0 104.8,258.0 47.0,258.0" fill="var(--ink)" fill-opacity="0.32" stroke="var(--ink-2)" stroke-width="1" stroke-dasharray="1 3" stroke-linecap="round"/>
<line x1="47.0" y1="251.0" x2="104.8" y2="251.0" stroke="var(--ink-4)" stroke-width="0.8"/>
<polygon class="w-chosen" points="102.6,249.5 163.8,157.7 168.2,160.7 107.0,252.5" fill="var(--ink)" fill-opacity="0.32" stroke="var(--ink-2)" stroke-width="1" stroke-dasharray="1 3" stroke-linecap="round"/>
<line x1="104.8" y1="251.0" x2="166.0" y2="159.2" stroke="var(--ink-4)" stroke-width="0.8"/>
<polygon class="w-chosen" points="49.9,98.4 168.9,152.8 163.1,165.6 44.1,111.2" fill="var(--ink-3)" fill-opacity="0.32" stroke="var(--ink-2)" stroke-width="1" stroke-dasharray="1 3" stroke-linecap="round"/>
<line x1="47.0" y1="104.8" x2="166.0" y2="159.2" stroke="var(--ink-4)" stroke-width="0.8"/>
<polygon class="w-chosen" points="107.4,247.4 168.6,291.6 163.4,298.8 102.2,254.6" fill="var(--ink)" fill-opacity="0.32" stroke="var(--ink-2)" stroke-width="1" stroke-dasharray="1 3" stroke-linecap="round"/>
<line x1="104.8" y1="251.0" x2="166.0" y2="295.2" stroke="var(--ink-4)" stroke-width="0.8"/>
<polygon class="w-chosen" points="167.5,159.2 167.5,295.2 164.3,295.2 164.3,159.2" fill="var(--ink-3)" fill-opacity="0.32" stroke="var(--ink-2)" stroke-width="1" stroke-dasharray="1 3" stroke-linecap="round"/>
<line x1="166.0" y1="159.2" x2="166.0" y2="295.2" stroke="var(--ink-4)" stroke-width="0.8"/>
<polygon class="w-chosen" points="166.9,156.9 228.1,180.7 226.2,185.5 165.0,161.7" fill="var(--ink-3)" fill-opacity="0.32" stroke="var(--ink-2)" stroke-width="1" stroke-dasharray="1 3" stroke-linecap="round"/>
<line x1="166.0" y1="159.2" x2="227.2" y2="183.0" stroke="var(--ink-4)" stroke-width="0.8"/>
<polygon class="w-chosen" points="165.3,294.8 226.5,182.6 227.7,183.3 166.5,295.5" fill="var(--ink)" fill-opacity="0.32" stroke="var(--ink-2)" stroke-width="1" stroke-dasharray="1 3" stroke-linecap="round"/>
<line x1="166.0" y1="295.2" x2="227.2" y2="183.0" stroke="var(--ink-4)" stroke-width="0.8"/>
<polygon class="w-chosen" points="166.0,293.9 227.2,293.9 227.2,296.7 166.0,296.7" fill="var(--ink-3)" fill-opacity="0.32" stroke="var(--ink-2)" stroke-width="1" stroke-dasharray="1 3" stroke-linecap="round"/>
<line x1="166.0" y1="295.2" x2="227.2" y2="295.2" stroke="var(--ink-4)" stroke-width="0.8"/>
<polygon class="w-chosen" points="227.7,183.0 227.7,295.2 226.5,295.2 226.5,183.0" fill="var(--ink-3)" fill-opacity="0.32" stroke="var(--ink-2)" stroke-width="1" stroke-dasharray="1 3" stroke-linecap="round"/>
<line x1="227.2" y1="183.0" x2="227.2" y2="295.2" stroke="var(--ink-4)" stroke-width="0.8"/>
<polygon class="w-chosen" points="168.6,154.5 291.0,222.5 288.6,226.8 166.2,158.8" fill="var(--ink)" fill-opacity="0.32" stroke="var(--ink-2)" stroke-width="1" stroke-dasharray="1 3" stroke-linecap="round"/>
<polygon class="w-chosen" points="166.2,158.8 288.6,226.8 285.8,231.9 163.4,163.9" fill="var(--ink-3)" fill-opacity="0.32" stroke="var(--ink-2)" stroke-width="1" stroke-dasharray="1 3" stroke-linecap="round"/>
<line x1="166.0" y1="159.2" x2="288.4" y2="227.2" stroke="var(--ink-4)" stroke-width="0.8"/>
<polygon class="w-chosen" points="164.1,291.9 286.5,223.9 290.2,230.4 167.8,298.4" fill="var(--ink)" fill-opacity="0.32" stroke="var(--ink-2)" stroke-width="1" stroke-dasharray="1 3" stroke-linecap="round"/>
<line x1="166.0" y1="295.2" x2="288.4" y2="227.2" stroke="var(--ink-4)" stroke-width="0.8"/>
<polygon class="w-chosen" points="228.9,180.7 290.1,224.9 289.2,226.1 228.0,181.9" fill="var(--ink)" fill-opacity="0.32" stroke="var(--ink-2)" stroke-width="1" stroke-dasharray="1 3" stroke-linecap="round"/>
<polygon class="w-chosen" points="228.0,181.9 289.2,226.1 286.7,229.5 225.5,185.3" fill="var(--ink-3)" fill-opacity="0.32" stroke="var(--ink-2)" stroke-width="1" stroke-dasharray="1 3" stroke-linecap="round"/>
<line x1="227.2" y1="183.0" x2="288.4" y2="227.2" stroke="var(--ink-4)" stroke-width="0.8"/>
<polygon class="w-chosen" points="225.6,293.7 286.8,225.7 287.1,226.0 225.9,294.0" fill="var(--ink)" fill-opacity="0.32" stroke="var(--ink-2)" stroke-width="1" stroke-dasharray="1 3" stroke-linecap="round"/>
<polygon class="w-chosen" points="225.9,294.0 287.1,226.0 290.0,228.7 228.8,296.7" fill="var(--ink-3)" fill-opacity="0.32" stroke="var(--ink-2)" stroke-width="1" stroke-dasharray="1 3" stroke-linecap="round"/>
<line x1="227.2" y1="295.2" x2="288.4" y2="227.2" stroke="var(--ink-4)" stroke-width="0.8"/>
<polygon class="w-chosen" points="292.7,221.7 353.9,269.3 348.9,275.7 287.7,228.1" fill="var(--ink)" fill-opacity="0.32" stroke="var(--ink-2)" stroke-width="1" stroke-dasharray="1 3" stroke-linecap="round"/>
<polygon class="w-chosen" points="287.7,228.1 348.9,275.7 345.3,280.3 284.1,232.7" fill="var(--ink-3)" fill-opacity="0.32" stroke="var(--ink-2)" stroke-width="1" stroke-dasharray="1 3" stroke-linecap="round"/>
<line x1="288.4" y1="227.2" x2="349.6" y2="274.8" stroke="var(--ink-4)" stroke-width="0.8"/>
<polygon class="w-chosen" points="283.7,222.0 344.9,167.6 348.8,171.9 287.6,226.3" fill="var(--ink)" fill-opacity="0.32" stroke="var(--ink-2)" stroke-width="1" stroke-dasharray="1 3" stroke-linecap="round"/>
<polygon class="w-chosen" points="287.6,226.3 348.8,171.9 354.3,178.0 293.1,232.4" fill="var(--ink-3)" fill-opacity="0.32" stroke="var(--ink-2)" stroke-width="1" stroke-dasharray="1 3" stroke-linecap="round"/>
<line x1="288.4" y1="227.2" x2="349.6" y2="172.8" stroke="var(--ink-4)" stroke-width="0.8"/>
<circle cx="47" cy="251" r="7" fill="var(--paper)" stroke="var(--ink)" stroke-width="1.5"/>
<circle cx="104.8" cy="251" r="7" fill="var(--paper)" stroke="var(--ink)" stroke-width="1.5"/>
<circle cx="166" cy="159.2" r="7" fill="var(--paper)" stroke="var(--ink)" stroke-width="1.5"/>
<circle cx="166" cy="295.2" r="7" fill="var(--paper)" stroke="var(--ink)" stroke-width="1.5"/>
<circle cx="227.2" cy="182.99999999999997" r="7" fill="var(--paper)" stroke="var(--ink)" stroke-width="1.5"/>
<circle cx="227.2" cy="295.2" r="7" fill="var(--paper)" stroke="var(--ink)" stroke-width="1.5"/>
<circle cx="288.4" cy="227.20000000000002" r="7" fill="var(--paper)" stroke="var(--ink)" stroke-width="1.5"/>
<circle cx="349.59999999999997" cy="274.79999999999995" r="7" fill="var(--paper)" stroke="var(--ink)" stroke-width="1.5"/>
<circle cx="47" cy="104.8" r="7" fill="var(--paper)" stroke="var(--ink)" stroke-width="1.5"/>
<circle cx="349.59999999999997" cy="172.8" r="7" fill="var(--paper)" stroke="var(--ink)" stroke-width="1.5"/>
</svg>